  0
SECTION
  2
HEADER
  9
$ACADVER
  1
AC1009
  0
ENDSEC
  0
SECTION
  2
ENTITIES
  0
POLYLINE
  5
90
  8
Layer_0
  62
0
  70
1
  66
1
  10
0
  20
0
  30
0
  0
VERTEX
  5
90
  8
Layer_0
  10
348.06
  20
238.49544
  0
VERTEX
  5
91
  8
Layer_0
  10
348.75116
  20
238.08234
  0
VERTEX
  5
92
  8
Layer_0
  10
348.95081
  20
237.30228
  0
VERTEX
  5
93
  8
Layer_0
  10
348.47769
  20
236.58809
  0
VERTEX
  5
94
  8
Layer_0
  10
347.88431
  20
235.97015
  0
VERTEX
  5
95
  8
Layer_0
  10
344.54596
  20
231.81461
  0
VERTEX
  5
96
  8
Layer_0
  10
341.30142
  20
227.58527
  0
VERTEX
  5
97
  8
Layer_0
  10
340.52563
  20
225.75208
  0
VERTEX
  5
98
  8
Layer_0
  10
339.75684
  20
223.91585
  0
VERTEX
  5
99
  8
Layer_0
  10
339.3902
  20
223.65092
  0
VERTEX
  5
9a
  8
Layer_0
  10
338.93961
  20
223.69519
  0
VERTEX
  5
9b
  8
Layer_0
  10
338.68542
  20
223.93152
  0
VERTEX
  5
9c
  8
Layer_0
  10
338.58411
  20
224.26318
  0
VERTEX
  5
9d
  8
Layer_0
  10
335.87192
  20
220.90216
  0
VERTEX
  5
9e
  8
Layer_0
  10
333.21075
  20
217.5005
  0
VERTEX
  5
9f
  8
Layer_0
  10
333.41095
  20
217.24307
  0
VERTEX
  5
a0
  8
Layer_0
  10
333.49677
  20
217.42287
  0
VERTEX
  5
a1
  8
Layer_0
  10
334.09271
  20
216.29897
  0
VERTEX
  5
a2
  8
Layer_0
  10
334.89835
  20
215.31438
  0
VERTEX
  5
a3
  8
Layer_0
  10
337.46545
  20
212.06461
  0
VERTEX
  5
a4
  8
Layer_0
  10
340.07147
  20
208.84592
  0
VERTEX
  5
a5
  8
Layer_0
  10
341.90668
  20
207.63034
  0
VERTEX
  5
a6
  8
Layer_0
  10
343.51614
  20
206.12857
  0
VERTEX
  5
a7
  8
Layer_0
  10
343.41656
  20
205.65643
  0
VERTEX
  5
a8
  8
Layer_0
  10
343.01764
  20
205.38489
  0
VERTEX
  5
a9
  8
Layer_0
  10
342.94849
  20
205.37543
  0
VERTEX
  5
aa
  8
Layer_0
  10
342.87872
  20
205.37263
  0
VERTEX
  5
ab
  8
Layer_0
  10
345.99008
  20
201.54237
  0
VERTEX
  5
ac
  8
Layer_0
  10
348.94263
  20
197.58841
  0
VERTEX
  5
ad
  8
Layer_0
  10
348.77405
  20
196.90215
  0
VERTEX
  5
ae
  8
Layer_0
  10
348.17853
  20
196.52191
  0
VERTEX
  5
af
  8
Layer_0
  10
347.81384
  20
196.54343
  0
VERTEX
  5
b0
  8
Layer_0
  10
347.50021
  20
196.73032
  0
VERTEX
  5
b1
  8
Layer_0
  10
344.40945
  20
200.45892
  0
VERTEX
  5
b2
  8
Layer_0
  10
341.39951
  20
204.25302
  0
VERTEX
  5
b3
  8
Layer_0
  10
341.12082
  20
203.87259
  0
VERTEX
  5
b4
  8
Layer_0
  10
340.65991
  20
203.77493
  0
VERTEX
  5
b5
  8
Layer_0
  10
340.09637
  20
204.17496
  0
VERTEX
  5
b6
  8
Layer_0
  10
339.85083
  20
204.82098
  0
VERTEX
  5
b7
  8
Layer_0
  10
338.66992
  20
207.66501
  0
VERTEX
  5
b8
  8
Layer_0
  10
336.23816
  20
210.70143
  0
VERTEX
  5
b9
  8
Layer_0
  10
333.79913
  20
213.733
  0
VERTEX
  5
ba
  8
Layer_0
  10
332.82086
  20
212.03749
  0
VERTEX
  5
bb
  8
Layer_0
  10
331.50677
  20
210.58664
  0
VERTEX
  5
bc
  8
Layer_0
  10
329.95322
  20
210.27847
  0
VERTEX
  5
bd
  8
Layer_0
  10
328.40128
  20
210.59482
  0
VERTEX
  5
be
  8
Layer_0
  10
326.60638
  20
212.82722
  0
VERTEX
  5
bf
  8
Layer_0
  10
325.00153
  20
215.19997
  0
VERTEX
  5
c0
  8
Layer_0
  10
324.92291
  20
215.17899
  0
VERTEX
  5
c1
  8
Layer_0
  10
324.85443
  20
215.13458
  0
VERTEX
  5
c2
  8
Layer_0
  10
323.34851
  20
212.56602
  0
VERTEX
  5
c3
  8
Layer_0
  10
321.53235
  20
210.20662
  0
VERTEX
  5
c4
  8
Layer_0
  10
320.56
  20
209.82904
  0
VERTEX
  5
c5
  8
Layer_0
  10
319.51788
  20
209.78574
  0
VERTEX
  5
c6
  8
Layer_0
  10
318.8244
  20
209.87827
  0
VERTEX
  5
c7
  8
Layer_0
  10
318.19696
  20
210.15619
  0
VERTEX
  5
c8
  8
Layer_0
  10
317.67114
  20
210.59723
  0
VERTEX
  5
c9
  8
Layer_0
  10
317.28271
  20
211.17914
  0
VERTEX
  5
ca
  8
Layer_0
  10
316.00055
  20
213.13336
  0
VERTEX
  5
cb
  8
Layer_0
  10
314.75336
  20
215.11008
  0
VERTEX
  5
cc
  8
Layer_0
  10
314.70758
  20
215.10802
  0
VERTEX
  5
cd
  8
Layer_0
  10
314.66754
  20
215.08556
  0
VERTEX
  5
ce
  8
Layer_0
  10
313.14514
  20
212.57251
  0
VERTEX
  5
cf
  8
Layer_0
  10
311.38629
  20
210.21887
  0
VERTEX
  5
d0
  8
Layer_0
  10
310.24573
  20
209.7706
  0
VERTEX
  5
d1
  8
Layer_0
  10
309.02039
  20
209.74896
  0
VERTEX
  5
d2
  8
Layer_0
  10
308.00467
  20
210.09111
  0
VERTEX
  5
d3
  8
Layer_0
  10
307.27557
  20
210.87675
  0
VERTEX
  5
d4
  8
Layer_0
  10
305.91333
  20
212.91827
  0
VERTEX
  5
d5
  8
Layer_0
  10
304.57458
  20
214.97522
  0
VERTEX
  5
d6
  8
Layer_0
  10
304.46304
  20
214.93617
  0
VERTEX
  5
d7
  8
Layer_0
  10
304.39481
  20
214.84039
  0
VERTEX
  5
d8
  8
Layer_0
  10
302.89868
  20
212.36043
  0
VERTEX
  5
d9
  8
Layer_0
  10
301.16669
  20
210.03909
  0
VERTEX
  5
da
  8
Layer_0
  10
300.0321
  20
209.60593
  0
VERTEX
  5
db
  8
Layer_0
  10
298.8566
  20
209.61464
  0
VERTEX
  5
dc
  8
Layer_0
  10
297.76147
  20
210.04193
  0
VERTEX
  5
dd
  8
Layer_0
  10
296.86798
  20
210.8645
  0
VERTEX
  5
de
  8
Layer_0
  10
296.65704
  20
211.22185
  0
VERTEX
  5
df
  8
Layer_0
  10
296.39401
  20
211.54282
  0
VERTEX
  5
e0
  8
Layer_0
  10
295.75964
  20
210.74069
  0
VERTEX
  5
e1
  8
Layer_0
  10
295.12726
  20
209.93692
  0
VERTEX
  5
e2
  8
Layer_0
  10
295.57996
  20
209.76022
  0
VERTEX
  5
e3
  8
Layer_0
  10
295.78516
  20
209.31992
  0
VERTEX
  5
e4
  8
Layer_0
  10
295.45093
  20
208.65302
  0
VERTEX
  5
e5
  8
Layer_0
  10
294.80856
  20
208.27383
  0
VERTEX
  5
e6
  8
Layer_0
  10
292.2334
  20
206.20738
  0
VERTEX
  5
e7
  8
Layer_0
  10
290.14209
  20
203.65234
  0
VERTEX
  5
e8
  8
Layer_0
  10
287.09149
  20
199.79675
  0
VERTEX
  5
e9
  8
Layer_0
  10
283.91064
  20
196.0479
  0
VERTEX
  5
ea
  8
Layer_0
  10
283.16345
  20
196.07761
  0
VERTEX
  5
eb
  8
Layer_0
  10
282.64801
  20
196.61998
  0
VERTEX
  5
ec
  8
Layer_0
  10
282.60544
  20
196.94977
  0
VERTEX
  5
ed
  8
Layer_0
  10
282.70929
  20
197.26559
  0
VERTEX
  5
ee
  8
Layer_0
  10
286.87595
  20
202.48254
  0
VERTEX
  5
ef
  8
Layer_0
  10
290.95117
  20
207.77124
  0
VERTEX
  5
f0
  8
Layer_0
  10
291.66043
  20
209.68169
  0
VERTEX
  5
f1
  8
Layer_0
  10
292.73685
  20
211.41205
  0
VERTEX
  5
f2
  8
Layer_0
  10
293.21176
  20
211.45322
  0
VERTEX
  5
f3
  8
Layer_0
  10
293.59903
  20
211.17505
  0
VERTEX
  5
f4
  8
Layer_0
  10
293.65625
  20
211.07291
  0
VERTEX
  5
f5
  8
Layer_0
  10
294.49921
  20
212.11229
  0
VERTEX
  5
f6
  8
Layer_0
  10
295.33566
  20
213.15686
  0
VERTEX
  5
f7
  8
Layer_0
  10
295.2128
  20
213.34488
  0
VERTEX
  5
f8
  8
Layer_0
  10
295.11093
  20
213.54504
  0
VERTEX
  5
f9
  8
Layer_0
  10
296.03049
  20
214.4115
  0
VERTEX
  5
fa
  8
Layer_0
  10
296.95789
  20
215.26944
  0
VERTEX
  5
fb
  8
Layer_0
  10
296.98242
  20
215.22858
  0
VERTEX
  5
fc
  8
Layer_0
  10
297.75845
  20
216.20471
  0
VERTEX
  5
fd
  8
Layer_0
  10
298.52292
  20
217.18994
  0
VERTEX
  5
fe
  8
Layer_0
  10
294.91885
  20
221.75084
  0
VERTEX
  5
ff
  8
Layer_0
  10
291.2168
  20
226.23273
  0
VERTEX
  5
100
  8
Layer_0
  10
289.31604
  20
227.62578
  0
VERTEX
  5
101
  8
Layer_0
  10
287.58414
  20
229.22383
  0
VERTEX
  5
102
  8
Layer_0
  10
287.69855
  20
229.67624
  0
VERTEX
  5
103
  8
Layer_0
  10
288.08673
  20
229.93483
  0
VERTEX
  5
104
  8
Layer_0
  10
288.15778
  20
229.94731
  0
VERTEX
  5
105
  8
Layer_0
  10
288.22977
  20
229.95117
  0
VERTEX
  5
106
  8
Layer_0
  10
285.29428
  20
233.41269
  0
VERTEX
  5
107
  8
Layer_0
  10
282.69702
  20
237.13474
  0
VERTEX
  5
108
  8
Layer_0
  10
282.88852
  20
237.75809
  0
VERTEX
  5
109
  8
Layer_0
  10
283.46115
  20
238.07047
  0
VERTEX
  5
10a
  8
Layer_0
  10
284.21027
  20
237.84564
  0
VERTEX
  5
10b
  8
Layer_0
  10
284.6911
  20
237.2287
  0
VERTEX
  5
10c
  8
Layer_0
  10
287.19073
  20
234.16525
  0
VERTEX
  5
10d
  8
Layer_0
  10
289.67218
  20
231.08714
  0
VERTEX
  5
10e
  8
Layer_0
  10
290.02567
  20
231.43022
  0
VERTEX
  5
10f
  8
Layer_0
  10
290.51804
  20
231.43448
  0
VERTEX
  5
110
  8
Layer_0
  10
290.95935
  20
231.04698
  0
VERTEX
  5
111
  8
Layer_0
  10
291.2168
  20
230.51917
  0
VERTEX
  5
112
  8
Layer_0
  10
291.83841
  20
229.07956
  0
VERTEX
  5
113
  8
Layer_0
  10
292.44672
  20
227.63429
  0
VERTEX
  5
114
  8
Layer_0
  10
294.37204
  20
225.23483
  0
VERTEX
  5
115
  8
Layer_0
  10
296.30408
  20
222.84117
  0
VERTEX
  5
116
  8
Layer_0
  10
297.78918
  20
223.93506
  0
VERTEX
  5
117
  8
Layer_0
  10
299.51782
  20
224.36716
  0
VERTEX
  5
118
  8
Layer_0
  10
301.28326
  20
224.12617
  0
VERTEX
  5
119
  8
Layer_0
  10
302.87881
  20
223.20076
  0
VERTEX
  5
11a
  8
Layer_0
  10
303.96783
  20
221.85992
  0
VERTEX
  5
11b
  8
Layer_0
  10
304.84021
  20
220.36902
  0
VERTEX
  5
11c
  8
Layer_0
  10
304.9035
  20
220.36024
  0
VERTEX
  5
11d
  8
Layer_0
  10
304.96277
  20
220.39354
  0
VERTEX
  5
11e
  8
Layer_0
  10
305.62738
  20
221.56326
  0
VERTEX
  5
11f
  8
Layer_0
  10
306.46716
  20
222.60271
  0
VERTEX
  5
120
  8
Layer_0
  10
307.46396
  20
223.49272
  0
VERTEX
  5
121
  8
Layer_0
  10
308.59949
  20
224.21414
  0
VERTEX
  5
122
  8
Layer_0
  10
309.77502
  20
224.42284
  0
VERTEX
  5
123
  8
Layer_0
  10
310.94464
  20
224.32164
  0
VERTEX
  5
124
  8
Layer_0
  10
312.04904
  20
223.92357
  0
VERTEX
  5
125
  8
Layer_0
  10
313.02896
  20
223.24162
  0
VERTEX
  5
126
  8
Layer_0
  10
313.98416
  20
222.0085
  0
VERTEX
  5
127
  8
Layer_0
  10
314.9209
  20
220.76129
  0
VERTEX
  5
128
  8
Layer_0
  10
315.15057
  20
220.90793
  0
VERTEX
  5
129
  8
Layer_0
  10
315.23959
  20
221.16583
  0
VERTEX
  5
12a
  8
Layer_0
  10
315.92966
  20
222.28374
  0
VERTEX
  5
12b
  8
Layer_0
  10
316.78717
  20
223.26718
  0
VERTEX
  5
12c
  8
Layer_0
  10
317.79333
  20
224.0979
  0
VERTEX
  5
12d
  8
Layer_0
  10
318.92944
  20
224.7576
  0
VERTEX
  5
12e
  8
Layer_0
  10
320.48853
  20
224.89879
  0
VERTEX
  5
12f
  8
Layer_0
  10
321.96674
  20
224.52461
  0
VERTEX
  5
130
  8
Layer_0
  10
323.24207
  20
223.68874
  0
VERTEX
  5
131
  8
Layer_0
  10
324.19247
  20
222.44481
  0
VERTEX
  5
132
  8
Layer_0
  10
324.72137
  20
221.61711
  0
VERTEX
  5
133
  8
Layer_0
  10
325.2876
  20
220.81442
  0
VERTEX
  5
134
  8
Layer_0
  10
325.53757
  20
221.0538
  0
VERTEX
  5
135
  8
Layer_0
  10
325.64716
  20
221.3824
  0
VERTEX
  5
136
  8
Layer_0
  10
326.30893
  20
222.43738
  0
VERTEX
  5
137
  8
Layer_0
  10
327.12689
  20
223.36552
  0
VERTEX
  5
138
  8
Layer_0
  10
328.0835
  20
224.14999
  0
VERTEX
  5
139
  8
Layer_0
  10
329.16132
  20
224.77396
  0
VERTEX
  5
13a
  8
Layer_0
  10
330.80249
  20
224.91603
  0
VERTEX
  5
13b
  8
Layer_0
  10
332.35852
  20
224.51953
  0
VERTEX
  5
13c
  8
Layer_0
  10
333.70215
  20
223.64038
  0
VERTEX
  5
13d
  8
Layer_0
  10
334.7063
  20
222.33449
  0
VERTEX
  5
13e
  8
Layer_0
  10
335.92484
  20
223.87192
  0
VERTEX
  5
13f
  8
Layer_0
  10
337.14575
  20
225.40732
  0
VERTEX
  5
140
  8
Layer_0
  10
336.69485
  20
225.52267
  0
VERTEX
  5
141
  8
Layer_0
  10
336.44293
  20
225.914
  0
VERTEX
  5
142
  8
Layer_0
  10
336.604
  20
226.4989
  0
VERTEX
  5
143
  8
Layer_0
  10
337.11307
  20
226.82932
  0
VERTEX
  5
144
  8
Layer_0
  10
338.79211
  20
228.03351
  0
VERTEX
  5
145
  8
Layer_0
  10
340.32864
  20
229.40623
  0
VERTEX
  5
146
  8
Layer_0
  10
341.71002
  20
230.93498
  0
VERTEX
  5
147
  8
Layer_0
  10
342.92365
  20
232.60721
  0
VERTEX
  5
148
  8
Layer_0
  10
345.20862
  20
235.62062
  0
VERTEX
  5
149
  8
Layer_0
  10
347.71271
  20
238.45457
  0
VERTEX
  5
14a
  8
Layer_0
  10
347.88373
  20
238.49652
  0
VERTEX
  5
14b
  8
Layer_0
  10
348.06
  20
238.49544
  0
SEQEND
  0
POLYLINE
  5
14d
  8
Layer_0
  62
0
  70
1
  66
1
  10
0
  20
0
  30
0
  0
VERTEX
  5
14d
  8
Layer_0
  10
299.93674
  20
222.94742
  0
VERTEX
  5
14e
  8
Layer_0
  10
299.86929
  20
222.89754
  0
VERTEX
  5
14f
  8
Layer_0
  10
299.84277
  20
222.81665
  0
VERTEX
  5
150
  8
Layer_0
  10
299.63843
  20
217.37982
  0
VERTEX
  5
151
  8
Layer_0
  10
299.65479
  20
211.93918
  0
VERTEX
  5
152
  8
Layer_0
  10
299.7121
  20
211.91577
  0
VERTEX
  5
153
  8
Layer_0
  10
299.77332
  20
211.91057
  0
VERTEX
  5
154
  8
Layer_0
  10
300.4762
  20
212.70485
  0
VERTEX
  5
155
  8
Layer_0
  10
301.07272
  20
213.58182
  0
VERTEX
  5
156
  8
Layer_0
  10
301.31708
  20
217.73212
  0
VERTEX
  5
157
  8
Layer_0
  10
301.38324
  20
221.88908
  0
VERTEX
  5
158
  8
Layer_0
  10
300.71198
  20
222.48932
  0
VERTEX
  5
159
  8
Layer_0
  10
299.93674
  20
222.94742
  0
SEQEND
  0
POLYLINE
  5
15b
  8
Layer_0
  62
0
  70
1
  66
1
  10
0
  20
0
  30
0
  0
VERTEX
  5
15b
  8
Layer_0
  10
310.14001
  20
223.0128
  0
VERTEX
  5
15c
  8
Layer_0
  10
310.09503
  20
222.9801
  0
VERTEX
  5
15d
  8
Layer_0
  10
310.0629
  20
222.93573
  0
VERTEX
  5
15e
  8
Layer_0
  10
310.05011
  20
222.88203
  0
VERTEX
  5
15f
  8
Layer_0
  10
309.85208
  20
217.47575
  0
VERTEX
  5
160
  8
Layer_0
  10
309.86212
  20
212.06584
  0
VERTEX
  5
161
  8
Layer_0
  10
310.23242
  20
212.22647
  0
VERTEX
  5
162
  8
Layer_0
  10
310.44647
  20
212.56845
  0
VERTEX
  5
163
  8
Layer_0
  10
311.25146
  20
213.63904
  0
VERTEX
  5
164
  8
Layer_0
  10
311.2677
  20
213.67459
  0
VERTEX
  5
165
  8
Layer_0
  10
311.27597
  20
213.71259
  0
VERTEX
  5
166
  8
Layer_0
  10
311.45987
  20
217.75031
  0
VERTEX
  5
167
  8
Layer_0
  10
311.65192
  20
221.78693
  0
VERTEX
  5
168
  8
Layer_0
  10
310.98956
  20
222.51532
  0
VERTEX
  5
169
  8
Layer_0
  10
310.14001
  20
223.0128
  0
SEQEND
  0
POLYLINE
  5
16b
  8
Layer_0
  62
0
  70
1
  66
1
  10
0
  20
0
  30
0
  0
VERTEX
  5
16b
  8
Layer_0
  10
320.36371
  20
223.42551
  0
VERTEX
  5
16c
  8
Layer_0
  10
320.29126
  20
223.37932
  0
VERTEX
  5
16d
  8
Layer_0
  10
320.25745
  20
223.29883
  0
VERTEX
  5
16e
  8
Layer_0
  10
320.05228
  20
217.75372
  0
VERTEX
  5
16f
  8
Layer_0
  10
320.0368
  20
212.20477
  0
VERTEX
  5
170
  8
Layer_0
  10
320.1185
  20
212.15779
  0
VERTEX
  5
171
  8
Layer_0
  10
320.21252
  20
212.14757
  0
VERTEX
  5
172
  8
Layer_0
  10
320.97946
  20
212.97983
  0
VERTEX
  5
173
  8
Layer_0
  10
321.52008
  20
213.97409
  0
VERTEX
  5
174
  8
Layer_0
  10
321.633
  20
218.01006
  0
VERTEX
  5
175
  8
Layer_0
  10
321.87561
  20
222.04028
  0
VERTEX
  5
176
  8
Layer_0
  10
321.24796
  20
222.87292
  0
VERTEX
  5
177
  8
Layer_0
  10
320.36371
  20
223.42551
  0
SEQEND
  0
POLYLINE
  5
179
  8
Layer_0
  62
0
  70
1
  66
1
  10
0
  20
0
  30
0
  0
VERTEX
  5
179
  8
Layer_0
  10
308.95911
  20
222.04846
  0
VERTEX
  5
17a
  8
Layer_0
  10
308.09836
  20
221.21741
  0
VERTEX
  5
17b
  8
Layer_0
  10
307.65149
  20
220.10751
  0
VERTEX
  5
17c
  8
Layer_0
  10
307.61426
  20
217.22278
  0
VERTEX
  5
17d
  8
Layer_0
  10
307.62289
  20
214.33777
  0
VERTEX
  5
17e
  8
Layer_0
  10
308.07715
  20
213.40356
  0
VERTEX
  5
17f
  8
Layer_0
  10
308.7793
  20
212.63791
  0
VERTEX
  5
180
  8
Layer_0
  10
308.9505
  20
212.82744
  0
VERTEX
  5
181
  8
Layer_0
  10
308.9632
  20
213.08331
  0
VERTEX
  5
182
  8
Layer_0
  10
309.12347
  20
217.55881
  0
VERTEX
  5
183
  8
Layer_0
  10
309.02856
  20
222.03619
  0
VERTEX
  5
184
  8
Layer_0
  10
308.99689
  20
222.05132
  0
VERTEX
  5
185
  8
Layer_0
  10
308.95911
  20
222.04846
  0
SEQEND
  0
POLYLINE
  5
187
  8
Layer_0
  62
0
  70
1
  66
1
  10
0
  20
0
  30
0
  0
VERTEX
  5
187
  8
Layer_0
  10
330.54242
  20
223.5726
  0
VERTEX
  5
188
  8
Layer_0
  10
330.46295
  20
223.54083
  0
VERTEX
  5
189
  8
Layer_0
  10
330.41577
  20
223.47046
  0
VERTEX
  5
18a
  8
Layer_0
  10
330.23672
  20
220.60257
  0
VERTEX
  5
18b
  8
Layer_0
  10
330.19922
  20
217.72932
  0
VERTEX
  5
18c
  8
Layer_0
  10
330.13641
  20
215.24124
  0
VERTEX
  5
18d
  8
Layer_0
  10
330.13382
  20
212.75232
  0
VERTEX
  5
18e
  8
Layer_0
  10
330.2182
  20
212.66354
  0
VERTEX
  5
18f
  8
Layer_0
  10
330.33813
  20
212.65836
  0
VERTEX
  5
190
  8
Layer_0
  10
330.59558
  20
212.78952
  0
VERTEX
  5
191
  8
Layer_0
  10
330.74268
  20
213.03836
  0
VERTEX
  5
192
  8
Layer_0
  10
331.58441
  20
214.14981
  0
VERTEX
  5
193
  8
Layer_0
  10
331.85495
  20
218.25415
  0
VERTEX
  5
194
  8
Layer_0
  10
331.89499
  20
222.36717
  0
VERTEX
  5
195
  8
Layer_0
  10
331.48721
  20
222.92867
  0
VERTEX
  5
196
  8
Layer_0
  10
330.94696
  20
223.3642
  0
VERTEX
  5
197
  8
Layer_0
  10
330.76529
  20
223.50864
  0
VERTEX
  5
198
  8
Layer_0
  10
330.54242
  20
223.5726
  0
SEQEND
  0
POLYLINE
  5
19a
  8
Layer_0
  62
0
  70
1
  66
1
  10
0
  20
0
  30
0
  0
VERTEX
  5
19a
  8
Layer_0
  10
319.15009
  20
222.57965
  0
VERTEX
  5
19b
  8
Layer_0
  10
318.45593
  20
221.90858
  0
VERTEX
  5
19c
  8
Layer_0
  10
317.87518
  20
221.13722
  0
VERTEX
  5
19d
  8
Layer_0
  10
317.8425
  20
217.79062
  0
VERTEX
  5
19e
  8
Layer_0
  10
317.80573
  20
214.44403
  0
VERTEX
  5
19f
  8
Layer_0
  10
318.26718
  20
213.45917
  0
VERTEX
  5
1a0
  8
Layer_0
  10
319.00299
  20
212.65836
  0
VERTEX
  5
1a1
  8
Layer_0
  10
319.08569
  20
212.68628
  0
VERTEX
  5
1a2
  8
Layer_0
  10
319.14191
  20
212.75232
  0
VERTEX
  5
1a3
  8
Layer_0
  10
319.34253
  20
217.66278
  0
VERTEX
  5
1a4
  8
Layer_0
  10
319.2114
  20
222.57556
  0
VERTEX
  5
1a5
  8
Layer_0
  10
319.18085
  20
222.57967
  0
VERTEX
  5
1a6
  8
Layer_0
  10
319.15009
  20
222.57965
  0
SEQEND
  0
POLYLINE
  5
1a8
  8
Layer_0
  62
0
  70
1
  66
1
  10
0
  20
0
  30
0
  0
VERTEX
  5
1a8
  8
Layer_0
  10
298.41669
  20
214.09261
  0
VERTEX
  5
1a9
  8
Layer_0
  10
297.9917
  20
213.5614
  0
VERTEX
  5
1aa
  8
Layer_0
  10
298.5025
  20
212.71964
  0
VERTEX
  5
1ab
  8
Layer_0
  10
298.54333
  20
212.69511
  0
VERTEX
  5
1ac
  8
Layer_0
  10
298.65103
  20
212.69518
  0
VERTEX
  5
1ad
  8
Layer_0
  10
298.73132
  20
212.76459
  0
VERTEX
  5
1ae
  8
Layer_0
  10
298.746
  20
212.79845
  0
VERTEX
  5
1af
  8
Layer_0
  10
298.75583
  20
212.83405
  0
VERTEX
  5
1b0
  8
Layer_0
  10
298.80078
  20
214.57068
  0
VERTEX
  5
1b1
  8
Layer_0
  10
298.41669
  20
214.09261
  0
SEQEND
  0
POLYLINE
  5
1b3
  8
Layer_0
  62
0
  70
1
  66
1
  10
0
  20
0
  30
0
  0
VERTEX
  5
1b3
  8
Layer_0
  10
329.27982
  20
222.45297
  0
VERTEX
  5
1b4
  8
Layer_0
  10
328.54004
  20
221.69873
  0
VERTEX
  5
1b5
  8
Layer_0
  10
327.9436
  20
220.82666
  0
VERTEX
  5
1b6
  8
Layer_0
  10
327.9436
  20
214.9221
  0
VERTEX
  5
1b7
  8
Layer_0
  10
328.42236
  20
213.93164
  0
VERTEX
  5
1b8
  8
Layer_0
  10
329.16949
  20
213.12418
  0
VERTEX
  5
1b9
  8
Layer_0
  10
329.22284
  20
213.17625
  0
VERTEX
  5
1ba
  8
Layer_0
  10
329.2471
  20
213.24677
  0
VERTEX
  5
1bb
  8
Layer_0
  10
329.45093
  20
217.84628
  0
VERTEX
  5
1bc
  8
Layer_0
  10
329.33704
  20
222.4489
  0
VERTEX
  5
1bd
  8
Layer_0
  10
329.30847
  20
222.45193
  0
VERTEX
  5
1be
  8
Layer_0
  10
329.27982
  20
222.45297
  0
SEQEND
  0
POLYLINE
  5
1c0
  8
Layer_0
  62
0
  70
1
  66
1
  10
0
  20
0
  30
0
  0
VERTEX
  5
1c0
  8
Layer_0
  10
302.46613
  20
219.94406
  0
VERTEX
  5
1c1
  8
Layer_0
  10
302.41217
  20
219.90805
  0
VERTEX
  5
1c2
  8
Layer_0
  10
302.37622
  20
219.85416
  0
VERTEX
  5
1c3
  8
Layer_0
  10
302.11557
  20
217.72055
  0
VERTEX
  5
1c4
  8
Layer_0
  10
302.17188
  20
215.57181
  0
VERTEX
  5
1c5
  8
Layer_0
  10
302.28665
  20
215.56232
  0
VERTEX
  5
1c6
  8
Layer_0
  10
302.38031
  20
215.62901
  0
VERTEX
  5
1c7
  8
Layer_0
  10
303.09692
  20
216.90988
  0
VERTEX
  5
1c8
  8
Layer_0
  10
303.27518
  20
218.36678
  0
VERTEX
  5
1c9
  8
Layer_0
  10
302.96625
  20
219.20445
  0
VERTEX
  5
1ca
  8
Layer_0
  10
302.46613
  20
219.94406
  0
SEQEND
  0
POLYLINE
  5
1cc
  8
Layer_0
  62
0
  70
1
  66
1
  10
0
  20
0
  30
0
  0
VERTEX
  5
1cc
  8
Layer_0
  10
312.66528
  20
219.95631
  0
VERTEX
  5
1cd
  8
Layer_0
  10
312.5769
  20
219.87759
  0
VERTEX
  5
1ce
  8
Layer_0
  10
312.55902
  20
219.76016
  0
VERTEX
  5
1cf
  8
Layer_0
  10
312.34375
  20
217.75142
  0
VERTEX
  5
1d0
  8
Layer_0
  10
312.35065
  20
215.73117
  0
VERTEX
  5
1d1
  8
Layer_0
  10
312.40619
  20
215.702
  0
VERTEX
  5
1d2
  8
Layer_0
  10
312.46915
  20
215.6944
  0
VERTEX
  5
1d3
  8
Layer_0
  10
313.02173
  20
216.38551
  0
VERTEX
  5
1d4
  8
Layer_0
  10
313.36218
  20
217.18492
  0
VERTEX
  5
1d5
  8
Layer_0
  10
313.47784
  20
218.04608
  0
VERTEX
  5
1d6
  8
Layer_0
  10
313.35583
  20
218.9225
  0
VERTEX
  5
1d7
  8
Layer_0
  10
313.08191
  20
219.48706
  0
VERTEX
  5
1d8
  8
Layer_0
  10
312.66528
  20
219.95631
  0
SEQEND
  0
POLYLINE
  5
1da
  8
Layer_0
  62
0
  70
1
  66
1
  10
0
  20
0
  30
0
  0
VERTEX
  5
1da
  8
Layer_0
  10
322.91757
  20
220.1402
  0
VERTEX
  5
1db
  8
Layer_0
  10
322.70074
  20
219.72311
  0
VERTEX
  5
1dc
  8
Layer_0
  10
322.71735
  20
219.25348
  0
VERTEX
  5
1dd
  8
Layer_0
  10
322.53195
  20
217.52158
  0
VERTEX
  5
1de
  8
Layer_0
  10
322.57025
  20
215.78021
  0
VERTEX
  5
1df
  8
Layer_0
  10
322.63104
  20
215.7614
  0
VERTEX
  5
1e0
  8
Layer_0
  10
322.69281
  20
215.76794
  0
VERTEX
  5
1e1
  8
Layer_0
  10
323.41772
  20
216.75771
  0
VERTEX
  5
1e2
  8
Layer_0
  10
323.70825
  20
217.90742
  0
VERTEX
  5
1e3
  8
Layer_0
  10
323.55646
  20
219.08353
  0
VERTEX
  5
1e4
  8
Layer_0
  10
322.95435
  20
220.15245
  0
VERTEX
  5
1e5
  8
Layer_0
  10
322.91757
  20
220.1402
  0
SEQEND
  0
POLYLINE
  5
1e7
  8
Layer_0
  62
0
  70
1
  66
1
  10
0
  20
0
  30
0
  0
VERTEX
  5
1e7
  8
Layer_0
  10
306.51962
  20
218.0603
  0
VERTEX
  5
1e8
  8
Layer_0
  10
306.2149
  20
217.60349
  0
VERTEX
  5
1e9
  8
Layer_0
  10
306.31531
  20
217.06328
  0
VERTEX
  5
1ea
  8
Layer_0
  10
306.42639
  20
216.97058
  0
VERTEX
  5
1eb
  8
Layer_0
  10
306.57275
  20
216.9693
  0
VERTEX
  5
1ec
  8
Layer_0
  10
306.60541
  20
216.9938
  0
VERTEX
  5
1ed
  8
Layer_0
  10
306.75339
  20
217.54242
  0
VERTEX
  5
1ee
  8
Layer_0
  10
306.51962
  20
218.0603
  0
SEQEND
  0
POLYLINE
  5
1f0
  8
Layer_0
  62
0
  70
1
  66
1
  10
0
  20
0
  30
0
  0
VERTEX
  5
1f0
  8
Layer_0
  10
316.70245
  20
218.68959
  0
VERTEX
  5
1f1
  8
Layer_0
  10
316.31732
  20
217.91991
  0
VERTEX
  5
1f2
  8
Layer_0
  10
316.57986
  20
217.10005
  0
VERTEX
  5
1f3
  8
Layer_0
  10
316.66895
  20
217.0598
  0
VERTEX
  5
1f4
  8
Layer_0
  10
316.76373
  20
217.07962
  0
VERTEX
  5
1f5
  8
Layer_0
  10
316.95197
  20
217.89301
  0
VERTEX
  5
1f6
  8
Layer_0
  10
316.70245
  20
218.68959
  0
SEQEND
  0
POLYLINE
  5
1f8
  8
Layer_0
  62
0
  70
1
  66
1
  10
0
  20
0
  30
0
  0
VERTEX
  5
1f8
  8
Layer_0
  10
326.81583
  20
218.24011
  0
VERTEX
  5
1f9
  8
Layer_0
  10
326.61923
  20
217.96919
  0
VERTEX
  5
1fa
  8
Layer_0
  10
326.63602
  20
217.63535
  0
VERTEX
  5
1fb
  8
Layer_0
  10
326.69852
  20
217.51842
  0
VERTEX
  5
1fc
  8
Layer_0
  10
326.80765
  20
217.4433
  0
VERTEX
  5
1fd
  8
Layer_0
  10
326.9209
  20
217.46112
  0
VERTEX
  5
1fe
  8
Layer_0
  10
326.99152
  20
217.55362
  0
VERTEX
  5
1ff
  8
Layer_0
  10
327.05179
  20
217.9207
  0
VERTEX
  5
200
  8
Layer_0
  10
326.86078
  20
218.24011
  0
VERTEX
  5
201
  8
Layer_0
  10
326.81583
  20
218.24011
  0
SEQEND
  0
POLYLINE
  5
203
  8
Layer_0
  62
0
  70
1
  66
1
  10
0
  20
0
  30
0
  0
VERTEX
  5
203
  8
Layer_0
  10
298.77216
  20
221.81961
  0
VERTEX
  5
204
  8
Layer_0
  10
298.30573
  20
221.37759
  0
VERTEX
  5
205
  8
Layer_0
  10
297.88956
  20
220.88797
  0
VERTEX
  5
206
  8
Layer_0
  10
298.90295
  20
219.63759
  0
VERTEX
  5
207
  8
Layer_0
  10
298.9397
  20
221.68069
  0
VERTEX
  5
208
  8
Layer_0
  10
298.89474
  20
221.76964
  0
VERTEX
  5
209
  8
Layer_0
  10
298.80896
  20
221.81961
  0
VERTEX
  5
20a
  8
Layer_0
  10
298.77216
  20
221.81961
  0
SEQEND
  0
POLYLINE
  5
20c
  8
Layer_0
  62
0
  70
1
  66
1
  10
0
  20
0
  30
0
  0
VERTEX
  5
20c
  8
Layer_0
  10
333.06772
  20
220.53247
  0
VERTEX
  5
20d
  8
Layer_0
  10
332.88824
  20
220.31
  0
VERTEX
  5
20e
  8
Layer_0
  10
332.8634
  20
220.02579
  0
VERTEX
  5
20f
  8
Layer_0
  10
333.22302
  20
220.47527
  0
VERTEX
  5
210
  8
Layer_0
  10
333.15308
  20
220.52678
  0
VERTEX
  5
211
  8
Layer_0
  10
333.06772
  20
220.53247
  0
SEQEND
  0
POLYLINE
  5
213
  8
Layer_0
  62
0
  70
1
  66
1
  10
0
  20
0
  30
0
  0
VERTEX
  5
213
  8
Layer_0
  10
298.20261
  20
236.01132
  0
VERTEX
  5
214
  8
Layer_0
  10
299.38586
  20
235.84062
  0
VERTEX
  5
215
  8
Layer_0
  10
300.5112
  20
235.4371
  0
VERTEX
  5
216
  8
Layer_0
  10
300.5112
  20
234.00351
  0
VERTEX
  5
217
  8
Layer_0
  10
299.66364
  20
234.59268
  0
VERTEX
  5
218
  8
Layer_0
  10
298.70221
  20
234.91055
  0
VERTEX
  5
219
  8
Layer_0
  10
297.69019
  20
234.9458
  0
VERTEX
  5
21a
  8
Layer_0
  10
296.69089
  20
234.6871
  0
VERTEX
  5
21b
  8
Layer_0
  10
296.10565
  20
233.97333
  0
VERTEX
  5
21c
  8
Layer_0
  10
296.12057
  20
233.05038
  0
VERTEX
  5
21d
  8
Layer_0
  10
296.74792
  20
232.341
  0
VERTEX
  5
21e
  8
Layer_0
  10
297.64792
  20
232.04648
  0
VERTEX
  5
21f
  8
Layer_0
  10
299.06897
  20
231.71561
  0
VERTEX
  5
220
  8
Layer_0
  10
300.31979
  20
230.96445
  0
VERTEX
  5
221
  8
Layer_0
  10
300.76251
  20
230.10652
  0
VERTEX
  5
222
  8
Layer_0
  10
300.85931
  20
229.17676
  0
VERTEX
  5
223
  8
Layer_0
  10
300.61804
  20
228.27365
  0
VERTEX
  5
224
  8
Layer_0
  10
300.04636
  20
227.4957
  0
VERTEX
  5
225
  8
Layer_0
  10
298.94791
  20
226.91296
  0
VERTEX
  5
226
  8
Layer_0
  10
297.75482
  20
226.64987
  0
VERTEX
  5
227
  8
Layer_0
  10
296.53467
  20
226.71204
  0
VERTEX
  5
228
  8
Layer_0
  10
295.35495
  20
227.10507
  0
VERTEX
  5
229
  8
Layer_0
  10
295.04041
  20
227.23708
  0
VERTEX
  5
22a
  8
Layer_0
  10
294.72995
  20
227.37851
  0
VERTEX
  5
22b
  8
Layer_0
  10
294.72995
  20
228.88242
  0
VERTEX
  5
22c
  8
Layer_0
  10
295.62292
  20
228.22098
  0
VERTEX
  5
22d
  8
Layer_0
  10
296.64426
  20
227.83475
  0
VERTEX
  5
22e
  8
Layer_0
  10
297.73187
  20
227.73801
  0
VERTEX
  5
22f
  8
Layer_0
  10
298.8237
  20
227.94492
  0
VERTEX
  5
230
  8
Layer_0
  10
299.52148
  20
228.69008
  0
VERTEX
  5
231
  8
Layer_0
  10
299.55026
  20
229.71054
  0
VERTEX
  5
232
  8
Layer_0
  10
298.96912
  20
230.41849
  0
VERTEX
  5
233
  8
Layer_0
  10
298.10104
  20
230.71054
  0
VERTEX
  5
234
  8
Layer_0
  10
296.65469
  20
231.04663
  0
VERTEX
  5
235
  8
Layer_0
  10
295.38229
  20
231.8121
  0
VERTEX
  5
236
  8
Layer_0
  10
294.90549
  20
232.66455
  0
VERTEX
  5
237
  8
Layer_0
  10
294.79724
  20
233.60052
  0
VERTEX
  5
238
  8
Layer_0
  10
295.04892
  20
234.50851
  0
VERTEX
  5
239
  8
Layer_0
  10
295.65182
  20
235.27695
  0
VERTEX
  5
23a
  8
Layer_0
  10
296.85254
  20
235.90347
  0
VERTEX
  5
23b
  8
Layer_0
  10
298.20261
  20
236.01132
  0
SEQEND
  0
POLYLINE
  5
23d
  8
Layer_0
  62
0
  70
1
  66
1
  10
0
  20
0
  30
0
  0
VERTEX
  5
23d
  8
Layer_0
  10
313.55807
  20
233.78085
  0
VERTEX
  5
23e
  8
Layer_0
  10
314.44455
  20
233.57176
  0
VERTEX
  5
23f
  8
Layer_0
  10
315.17554
  20
233.07523
  0
VERTEX
  5
240
  8
Layer_0
  10
315.68665
  20
232.35437
  0
VERTEX
  5
241
  8
Layer_0
  10
315.91354
  20
231.47226
  0
VERTEX
  5
242
  8
Layer_0
  10
315.9635
  20
230.78958
  0
VERTEX
  5
243
  8
Layer_0
  10
315.96432
  20
230.10507
  0
VERTEX
  5
244
  8
Layer_0
  10
311.27682
  20
230.10507
  0
VERTEX
  5
245
  8
Layer_0
  10
311.32492
  20
229.2821
  0
VERTEX
  5
246
  8
Layer_0
  10
311.66599
  20
228.56076
  0
VERTEX
  5
247
  8
Layer_0
  10
312.24707
  20
228.01393
  0
VERTEX
  5
248
  8
Layer_0
  10
313.01511
  20
227.71445
  0
VERTEX
  5
249
  8
Layer_0
  10
314.49695
  20
227.84639
  0
VERTEX
  5
24a
  8
Layer_0
  10
315.83542
  20
228.4957
  0
VERTEX
  5
24b
  8
Layer_0
  10
315.83542
  20
227.25351
  0
VERTEX
  5
24c
  8
Layer_0
  10
314.70825
  20
226.80984
  0
VERTEX
  5
24d
  8
Layer_0
  10
313.52463
  20
226.68468
  0
VERTEX
  5
24e
  8
Layer_0
  10
312.34991
  20
226.87613
  0
VERTEX
  5
24f
  8
Layer_0
  10
311.24948
  20
227.38242
  0
VERTEX
  5
250
  8
Layer_0
  10
310.38806
  20
228.70728
  0
VERTEX
  5
251
  8
Layer_0
  10
310.09363
  20
230.20465
  0
VERTEX
  5
252
  8
Layer_0
  10
310.36734
  20
231.70593
  0
VERTEX
  5
253
  8
Layer_0
  10
311.21042
  20
233.04257
  0
VERTEX
  5
254
  8
Layer_0
  10
312.30508
  20
233.66339
  0
VERTEX
  5
255
  8
Layer_0
  10
313.55807
  20
233.78085
  0
SEQEND
  0
POLYLINE
  5
257
  8
Layer_0
  62
0
  70
1
  66
1
  10
0
  20
0
  30
0
  0
VERTEX
  5
257
  8
Layer_0
  10
332.77682
  20
233.78085
  0
VERTEX
  5
258
  8
Layer_0
  10
333.66354
  20
233.57127
  0
VERTEX
  5
259
  8
Layer_0
  10
334.39514
  20
233.07483
  0
VERTEX
  5
25a
  8
Layer_0
  10
334.90741
  20
232.35423
  0
VERTEX
  5
25b
  8
Layer_0
  10
335.1362
  20
231.47226
  0
VERTEX
  5
25c
  8
Layer_0
  10
335.18213
  20
230.78943
  0
VERTEX
  5
25d
  8
Layer_0
  10
335.18307
  20
230.10507
  0
VERTEX
  5
25e
  8
Layer_0
  10
330.49557
  20
230.10507
  0
VERTEX
  5
25f
  8
Layer_0
  10
330.54553
  20
229.28192
  0
VERTEX
  5
260
  8
Layer_0
  10
330.88776
  20
228.56076
  0
VERTEX
  5
261
  8
Layer_0
  10
331.46945
  20
228.0141
  0
VERTEX
  5
262
  8
Layer_0
  10
332.23776
  20
227.71445
  0
VERTEX
  5
263
  8
Layer_0
  10
333.71921
  20
227.84767
  0
VERTEX
  5
264
  8
Layer_0
  10
335.05807
  20
228.4957
  0
VERTEX
  5
265
  8
Layer_0
  10
335.05807
  20
227.25351
  0
VERTEX
  5
266
  8
Layer_0
  10
333.85516
  20
226.7825
  0
VERTEX
  5
267
  8
Layer_0
  10
332.59406
  20
226.68611
  0
VERTEX
  5
268
  8
Layer_0
  10
331.35889
  20
226.95837
  0
VERTEX
  5
269
  8
Layer_0
  10
330.23386
  20
227.59335
  0
VERTEX
  5
26a
  8
Layer_0
  10
329.49048
  20
228.98758
  0
VERTEX
  5
26b
  8
Layer_0
  10
329.32422
  20
230.50497
  0
VERTEX
  5
26c
  8
Layer_0
  10
329.72214
  20
231.97867
  0
VERTEX
  5
26d
  8
Layer_0
  10
330.67136
  20
233.24179
  0
VERTEX
  5
26e
  8
Layer_0
  10
331.67551
  20
233.7011
  0
VERTEX
  5
26f
  8
Layer_0
  10
332.77682
  20
233.78085
  0
SEQEND
  0
POLYLINE
  5
271
  8
Layer_0
  62
0
  70
1
  66
1
  10
0
  20
0
  30
0
  0
VERTEX
  5
271
  8
Layer_0
  10
304.99557
  20
233.75351
  0
VERTEX
  5
272
  8
Layer_0
  10
305.88123
  20
233.57962
  0
VERTEX
  5
273
  8
Layer_0
  10
306.71823
  20
233.24179
  0
VERTEX
  5
274
  8
Layer_0
  10
306.71823
  20
231.96445
  0
VERTEX
  5
275
  8
Layer_0
  10
306.05841
  20
232.43062
  0
VERTEX
  5
276
  8
Layer_0
  10
305.30798
  20
232.68391
  0
VERTEX
  5
277
  8
Layer_0
  10
304.5166
  20
232.71516
  0
VERTEX
  5
278
  8
Layer_0
  10
303.73386
  20
232.51523
  0
VERTEX
  5
279
  8
Layer_0
  10
302.99722
  20
231.49927
  0
VERTEX
  5
27a
  8
Layer_0
  10
302.71649
  20
230.32358
  0
VERTEX
  5
27b
  8
Layer_0
  10
302.89755
  20
229.12848
  0
VERTEX
  5
27c
  8
Layer_0
  10
303.54636
  20
228.05429
  0
VERTEX
  5
27d
  8
Layer_0
  10
304.36151
  20
227.7493
  0
VERTEX
  5
27e
  8
Layer_0
  10
305.20929
  20
227.72852
  0
VERTEX
  5
27f
  8
Layer_0
  10
306.01855
  20
227.98193
  0
VERTEX
  5
280
  8
Layer_0
  10
306.71823
  20
228.4996
  0
VERTEX
  5
281
  8
Layer_0
  10
306.71823
  20
227.22226
  0
VERTEX
  5
282
  8
Layer_0
  10
305.57724
  20
226.76031
  0
VERTEX
  5
283
  8
Layer_0
  10
304.3811
  20
226.70966
  0
VERTEX
  5
284
  8
Layer_0
  10
303.23538
  20
227.05688
  0
VERTEX
  5
285
  8
Layer_0
  10
302.24557
  20
227.78867
  0
VERTEX
  5
286
  8
Layer_0
  10
301.63126
  20
229.16917
  0
VERTEX
  5
287
  8
Layer_0
  10
301.54523
  20
230.63235
  0
VERTEX
  5
288
  8
Layer_0
  10
301.97046
  20
232.03502
  0
VERTEX
  5
289
  8
Layer_0
  10
302.89011
  20
233.23398
  0
VERTEX
  5
28a
  8
Layer_0
  10
303.89981
  20
233.66812
  0
VERTEX
  5
28b
  8
Layer_0
  10
304.99557
  20
233.75351
  0
SEQEND
  0
POLYLINE
  5
28d
  8
Layer_0
  62
0
  70
1
  66
1
  10
0
  20
0
  30
0
  0
VERTEX
  5
28d
  8
Layer_0
  10
327.06589
  20
233.75351
  0
VERTEX
  5
28e
  8
Layer_0
  10
327.95178
  20
233.58043
  0
VERTEX
  5
28f
  8
Layer_0
  10
328.78854
  20
233.24179
  0
VERTEX
  5
290
  8
Layer_0
  10
328.78854
  20
231.96445
  0
VERTEX
  5
291
  8
Layer_0
  10
328.12878
  20
232.43079
  0
VERTEX
  5
292
  8
Layer_0
  10
327.37836
  20
232.68413
  0
VERTEX
  5
293
  8
Layer_0
  10
326.58691
  20
232.71533
  0
VERTEX
  5
294
  8
Layer_0
  10
325.80417
  20
232.51523
  0
VERTEX
  5
295
  8
Layer_0
  10
325.06763
  20
231.49893
  0
VERTEX
  5
296
  8
Layer_0
  10
324.78763
  20
230.32281
  0
VERTEX
  5
297
  8
Layer_0
  10
324.97003
  20
229.12769
  0
VERTEX
  5
298
  8
Layer_0
  10
325.62057
  20
228.05429
  0
VERTEX
  5
299
  8
Layer_0
  10
326.43481
  20
227.74924
  0
VERTEX
  5
29a
  8
Layer_0
  10
327.28168
  20
227.72845
  0
VERTEX
  5
29b
  8
Layer_0
  10
328.09
  20
227.9819
  0
VERTEX
  5
29c
  8
Layer_0
  10
328.78854
  20
228.4996
  0
VERTEX
  5
29d
  8
Layer_0
  10
328.78854
  20
227.22226
  0
VERTEX
  5
29e
  8
Layer_0
  10
327.64758
  20
226.76048
  0
VERTEX
  5
29f
  8
Layer_0
  10
326.45148
  20
226.70987
  0
VERTEX
  5
2a0
  8
Layer_0
  10
325.30576
  20
227.05704
  0
VERTEX
  5
2a1
  8
Layer_0
  10
324.31589
  20
227.78867
  0
VERTEX
  5
2a2
  8
Layer_0
  10
323.7016
  20
229.16963
  0
VERTEX
  5
2a3
  8
Layer_0
  10
323.61627
  20
230.63324
  0
VERTEX
  5
2a4
  8
Layer_0
  10
324.04291
  20
232.03589
  0
VERTEX
  5
2a5
  8
Layer_0
  10
324.96432
  20
233.23398
  0
VERTEX
  5
2a6
  8
Layer_0
  10
325.97198
  20
233.66818
  0
VERTEX
  5
2a7
  8
Layer_0
  10
327.06589
  20
233.75351
  0
SEQEND
  0
POLYLINE
  5
2a9
  8
Layer_0
  62
0
  70
1
  66
1
  10
0
  20
0
  30
0
  0
VERTEX
  5
2a9
  8
Layer_0
  10
308.89792
  20
226.83945
  0
VERTEX
  5
2aa
  8
Layer_0
  10
307.7612
  20
226.83945
  0
VERTEX
  5
2ab
  8
Layer_0
  10
307.7612
  20
233.60507
  0
VERTEX
  5
2ac
  8
Layer_0
  10
308.89792
  20
233.60507
  0
VERTEX
  5
2ad
  8
Layer_0
  10
308.89792
  20
226.83945
  0
SEQEND
  0
POLYLINE
  5
2af
  8
Layer_0
  62
0
  70
1
  66
1
  10
0
  20
0
  30
0
  0
VERTEX
  5
2af
  8
Layer_0
  10
320.59323
  20
233.78085
  0
VERTEX
  5
2b0
  8
Layer_0
  10
321.37579
  20
233.54108
  0
VERTEX
  5
2b1
  8
Layer_0
  10
321.98834
  20
233.03981
  0
VERTEX
  5
2b2
  8
Layer_0
  10
322.3721
  20
232.34753
  0
VERTEX
  5
2b3
  8
Layer_0
  10
322.46823
  20
231.53476
  0
VERTEX
  5
2b4
  8
Layer_0
  10
322.50223
  20
229.18713
  0
VERTEX
  5
2b5
  8
Layer_0
  10
322.47604
  20
226.83945
  0
VERTEX
  5
2b6
  8
Layer_0
  10
321.33542
  20
226.83945
  0
VERTEX
  5
2b7
  8
Layer_0
  10
321.39584
  20
229.20151
  0
VERTEX
  5
2b8
  8
Layer_0
  10
321.29245
  20
231.5621
  0
VERTEX
  5
2b9
  8
Layer_0
  10
321.07428
  20
232.27982
  0
VERTEX
  5
2ba
  8
Layer_0
  10
320.43698
  20
232.67538
  0
VERTEX
  5
2bb
  8
Layer_0
  10
319.27432
  20
232.53456
  0
VERTEX
  5
2bc
  8
Layer_0
  10
318.29636
  20
231.89023
  0
VERTEX
  5
2bd
  8
Layer_0
  10
318.29636
  20
226.83945
  0
VERTEX
  5
2be
  8
Layer_0
  10
317.15964
  20
226.83945
  0
VERTEX
  5
2bf
  8
Layer_0
  10
317.15964
  20
233.60507
  0
VERTEX
  5
2c0
  8
Layer_0
  10
318.29636
  20
233.60507
  0
VERTEX
  5
2c1
  8
Layer_0
  10
318.29636
  20
232.85507
  0
VERTEX
  5
2c2
  8
Layer_0
  10
319.34183
  20
233.57349
  0
VERTEX
  5
2c3
  8
Layer_0
  10
320.59323
  20
233.78085
  0
SEQEND
  0
POLYLINE
  5
2c5
  8
Layer_0
  62
0
  70
1
  66
1
  10
0
  20
0
  30
0
  0
VERTEX
  5
2c5
  8
Layer_0
  10
312.96432
  20
232.84335
  0
VERTEX
  5
2c6
  8
Layer_0
  10
312.29568
  20
232.64697
  0
VERTEX
  5
2c7
  8
Layer_0
  10
311.7601
  20
232.23552
  0
VERTEX
  5
2c8
  8
Layer_0
  10
311.40475
  20
231.66119
  0
VERTEX
  5
2c9
  8
Layer_0
  10
311.27682
  20
230.97617
  0
VERTEX
  5
2ca
  8
Layer_0
  10
314.85495
  20
230.97617
  0
VERTEX
  5
2cb
  8
Layer_0
  10
314.83441
  20
231.5943
  0
VERTEX
  5
2cc
  8
Layer_0
  10
314.59546
  20
232.14374
  0
VERTEX
  5
2cd
  8
Layer_0
  10
314.17474
  20
232.57033
  0
VERTEX
  5
2ce
  8
Layer_0
  10
313.60886
  20
232.81992
  0
VERTEX
  5
2cf
  8
Layer_0
  10
313.28741
  20
232.85374
  0
VERTEX
  5
2d0
  8
Layer_0
  10
312.96432
  20
232.84335
  0
SEQEND
  0
POLYLINE
  5
2d2
  8
Layer_0
  62
0
  70
1
  66
1
  10
0
  20
0
  30
0
  0
VERTEX
  5
2d2
  8
Layer_0
  10
332.18698
  20
232.84335
  0
VERTEX
  5
2d3
  8
Layer_0
  10
331.51715
  20
232.64793
  0
VERTEX
  5
2d4
  8
Layer_0
  10
330.98038
  20
232.23669
  0
VERTEX
  5
2d5
  8
Layer_0
  10
330.62402
  20
231.66199
  0
VERTEX
  5
2d6
  8
Layer_0
  10
330.49557
  20
230.97617
  0
VERTEX
  5
2d7
  8
Layer_0
  10
334.0737
  20
230.97617
  0
VERTEX
  5
2d8
  8
Layer_0
  10
334.05353
  20
231.59451
  0
VERTEX
  5
2d9
  8
Layer_0
  10
333.8147
  20
232.14407
  0
VERTEX
  5
2da
  8
Layer_0
  10
333.3938
  20
232.57063
  0
VERTEX
  5
2db
  8
Layer_0
  10
332.82761
  20
232.81992
  0
VERTEX
  5
2dc
  8
Layer_0
  10
332.50809
  20
232.85373
  0
VERTEX
  5
2dd
  8
Layer_0
  10
332.18698
  20
232.84335
  0
SEQEND
  0
POLYLINE
  5
2df
  8
Layer_0
  62
0
  70
1
  66
1
  10
0
  20
0
  30
0
  0
VERTEX
  5
2df
  8
Layer_0
  10
308.97604
  20
234.73788
  0
VERTEX
  5
2e0
  8
Layer_0
  10
307.67917
  20
234.73788
  0
VERTEX
  5
2e1
  8
Layer_0
  10
307.67917
  20
235.91757
  0
VERTEX
  5
2e2
  8
Layer_0
  10
308.97604
  20
235.91757
  0
VERTEX
  5
2e3
  8
Layer_0
  10
308.97604
  20
234.73788
  0
SEQEND
  0
POLYLINE
  5
2e5
  8
Layer_0
  62
0
  70
1
  66
1
  10
0
  20
0
  30
0
  0
VERTEX
  5
2e5
  8
Layer_0
  10
323.50278
  20
205.58878
  0
VERTEX
  5
2e6
  8
Layer_0
  10
324.24548
  20
205.44232
  0
VERTEX
  5
2e7
  8
Layer_0
  10
324.92856
  20
205.11612
  0
VERTEX
  5
2e8
  8
Layer_0
  10
324.99496
  20
205.40909
  0
VERTEX
  5
2e9
  8
Layer_0
  10
326.06918
  20
205.40909
  0
VERTEX
  5
2ea
  8
Layer_0
  10
326.1087
  20
202.20395
  0
VERTEX
  5
2eb
  8
Layer_0
  10
326.05746
  20
198.99893
  0
VERTEX
  5
2ec
  8
Layer_0
  10
325.97284
  20
198.06003
  0
VERTEX
  5
2ed
  8
Layer_0
  10
325.57922
  20
197.2323
  0
VERTEX
  5
2ee
  8
Layer_0
  10
324.92761
  20
196.58771
  0
VERTEX
  5
2ef
  8
Layer_0
  10
324.06918
  20
196.19815
  0
VERTEX
  5
2f0
  8
Layer_0
  10
322.54477
  20
196.10101
  0
VERTEX
  5
2f1
  8
Layer_0
  10
321.04184
  20
196.37393
  0
VERTEX
  5
2f2
  8
Layer_0
  10
321.04184
  20
197.56143
  0
VERTEX
  5
2f3
  8
Layer_0
  10
322.66943
  20
197.11937
  0
VERTEX
  5
2f4
  8
Layer_0
  10
324.3309
  20
197.40909
  0
VERTEX
  5
2f5
  8
Layer_0
  10
324.83566
  20
198.09865
  0
VERTEX
  5
2f6
  8
Layer_0
  10
324.92856
  20
198.94815
  0
VERTEX
  5
2f7
  8
Layer_0
  10
324.92856
  20
199.5419
  0
VERTEX
  5
2f8
  8
Layer_0
  10
324.08252
  20
198.9689
  0
VERTEX
  5
2f9
  8
Layer_0
  10
323.11731
  20
198.75467
  0
VERTEX
  5
2fa
  8
Layer_0
  10
322.13977
  20
198.9028
  0
VERTEX
  5
2fb
  8
Layer_0
  10
321.25668
  20
199.4169
  0
VERTEX
  5
2fc
  8
Layer_0
  10
320.50494
  20
200.88
  0
VERTEX
  5
2fd
  8
Layer_0
  10
320.37848
  20
202.46039
  0
VERTEX
  5
2fe
  8
Layer_0
  10
320.85614
  20
203.97217
  0
VERTEX
  5
2ff
  8
Layer_0
  10
321.91684
  20
205.2294
  0
VERTEX
  5
300
  8
Layer_0
  10
322.68167
  20
205.53326
  0
VERTEX
  5
301
  8
Layer_0
  10
323.50278
  20
205.58878
  0
SEQEND
  0
POLYLINE
  5
303
  8
Layer_0
  62
0
  70
1
  66
1
  10
0
  20
0
  30
0
  0
VERTEX
  5
303
  8
Layer_0
  10
335.83481
  20
205.40909
  0
VERTEX
  5
304
  8
Layer_0
  10
337.93246
  20
205.40909
  0
VERTEX
  5
305
  8
Layer_0
  10
337.93246
  20
204.46378
  0
VERTEX
  5
306
  8
Layer_0
  10
335.83481
  20
204.46378
  0
VERTEX
  5
307
  8
Layer_0
  10
335.78745
  20
202.39096
  0
VERTEX
  5
308
  8
Layer_0
  10
335.86996
  20
200.31924
  0
VERTEX
  5
309
  8
Layer_0
  10
336.08887
  20
199.79434
  0
VERTEX
  5
30a
  8
Layer_0
  10
336.59653
  20
199.53799
  0
VERTEX
  5
30b
  8
Layer_0
  10
337.27448
  20
199.56409
  0
VERTEX
  5
30c
  8
Layer_0
  10
337.93246
  20
199.7294
  0
VERTEX
  5
30d
  8
Layer_0
  10
337.93246
  20
198.70596
  0
VERTEX
  5
30e
  8
Layer_0
  10
337.23856
  20
198.50392
  0
VERTEX
  5
30f
  8
Layer_0
  10
336.52826
  20
198.49585
  0
VERTEX
  5
310
  8
Layer_0
  10
335.84137
  20
198.67682
  0
VERTEX
  5
311
  8
Layer_0
  10
335.21762
  20
199.0419
  0
VERTEX
  5
312
  8
Layer_0
  10
334.79352
  20
199.82884
  0
VERTEX
  5
313
  8
Layer_0
  10
334.69809
  20
200.71768
  0
VERTEX
  5
314
  8
Layer_0
  10
334.69809
  20
204.46378
  0
VERTEX
  5
315
  8
Layer_0
  10
333.92856
  20
204.46378
  0
VERTEX
  5
316
  8
Layer_0
  10
333.92856
  20
205.40909
  0
VERTEX
  5
317
  8
Layer_0
  10
334.69809
  20
205.40909
  0
VERTEX
  5
318
  8
Layer_0
  10
334.69809
  20
207.35049
  0
VERTEX
  5
319
  8
Layer_0
  10
335.83481
  20
207.35049
  0
VERTEX
  5
31a
  8
Layer_0
  10
335.83481
  20
205.40909
  0
SEQEND
  0
POLYLINE
  5
31c
  8
Layer_0
  62
0
  70
1
  66
1
  10
0
  20
0
  30
0
  0
VERTEX
  5
31c
  8
Layer_0
  10
315.11996
  20
200.52237
  0
VERTEX
  5
31d
  8
Layer_0
  10
315.11996
  20
207.65909
  0
VERTEX
  5
31e
  8
Layer_0
  10
316.24106
  20
207.65909
  0
VERTEX
  5
31f
  8
Layer_0
  10
316.24106
  20
198.64346
  0
VERTEX
  5
320
  8
Layer_0
  10
314.89731
  20
198.64346
  0
VERTEX
  5
321
  8
Layer_0
  10
310.91293
  20
206.42081
  0
VERTEX
  5
322
  8
Layer_0
  10
310.91293
  20
198.64346
  0
VERTEX
  5
323
  8
Layer_0
  10
309.79184
  20
198.64346
  0
VERTEX
  5
324
  8
Layer_0
  10
309.79184
  20
207.65909
  0
VERTEX
  5
325
  8
Layer_0
  10
311.49496
  20
207.65909
  0
VERTEX
  5
326
  8
Layer_0
  10
315.11996
  20
200.52237
  0
SEQEND
  0
POLYLINE
  5
328
  8
Layer_0
  62
0
  70
1
  66
1
  10
0
  20
0
  30
0
  0
VERTEX
  5
328
  8
Layer_0
  10
319.17075
  20
198.64346
  0
VERTEX
  5
329
  8
Layer_0
  10
318.03403
  20
198.64346
  0
VERTEX
  5
32a
  8
Layer_0
  10
318.03403
  20
205.40909
  0
VERTEX
  5
32b
  8
Layer_0
  10
319.17075
  20
205.40909
  0
VERTEX
  5
32c
  8
Layer_0
  10
319.17075
  20
198.64346
  0
SEQEND
  0
POLYLINE
  5
32e
  8
Layer_0
  62
0
  70
1
  66
1
  10
0
  20
0
  30
0
  0
VERTEX
  5
32e
  8
Layer_0
  10
328.81918
  20
204.65909
  0
VERTEX
  5
32f
  8
Layer_0
  10
329.5687
  20
205.282
  0
VERTEX
  5
330
  8
Layer_0
  10
330.46671
  20
205.57065
  0
VERTEX
  5
331
  8
Layer_0
  10
331.40817
  20
205.51193
  0
VERTEX
  5
332
  8
Layer_0
  10
332.28793
  20
205.09268
  0
VERTEX
  5
333
  8
Layer_0
  10
332.85535
  20
204.13657
  0
VERTEX
  5
334
  8
Layer_0
  10
332.99887
  20
203.03409
  0
VERTEX
  5
335
  8
Layer_0
  10
332.99887
  20
198.64346
  0
VERTEX
  5
336
  8
Layer_0
  10
331.85825
  20
198.64346
  0
VERTEX
  5
337
  8
Layer_0
  10
331.91867
  20
201.00552
  0
VERTEX
  5
338
  8
Layer_0
  10
331.81528
  20
203.36612
  0
VERTEX
  5
339
  8
Layer_0
  10
331.59644
  20
204.08328
  0
VERTEX
  5
33a
  8
Layer_0
  10
330.95981
  20
204.4794
  0
VERTEX
  5
33b
  8
Layer_0
  10
329.79703
  20
204.33896
  0
VERTEX
  5
33c
  8
Layer_0
  10
328.81918
  20
203.69424
  0
VERTEX
  5
33d
  8
Layer_0
  10
328.81918
  20
198.64346
  0
VERTEX
  5
33e
  8
Layer_0
  10
327.68246
  20
198.64346
  0
VERTEX
  5
33f
  8
Layer_0
  10
327.68246
  20
208.06534
  0
VERTEX
  5
340
  8
Layer_0
  10
328.81918
  20
208.06534
  0
VERTEX
  5
341
  8
Layer_0
  10
328.81918
  20
204.65909
  0
SEQEND
  0
POLYLINE
  5
343
  8
Layer_0
  62
0
  70
1
  66
1
  10
0
  20
0
  30
0
  0
VERTEX
  5
343
  8
Layer_0
  10
323.21762
  20
204.56143
  0
VERTEX
  5
344
  8
Layer_0
  10
322.50934
  20
204.29883
  0
VERTEX
  5
345
  8
Layer_0
  10
321.96704
  20
203.80814
  0
VERTEX
  5
346
  8
Layer_0
  10
321.63989
  20
203.15405
  0
VERTEX
  5
347
  8
Layer_0
  10
321.577
  20
202.40128
  0
VERTEX
  5
348
  8
Layer_0
  10
321.64365
  20
201.13242
  0
VERTEX
  5
349
  8
Layer_0
  10
322.29575
  20
200.0419
  0
VERTEX
  5
34a
  8
Layer_0
  10
322.98114
  20
199.84869
  0
VERTEX
  5
34b
  8
Layer_0
  10
323.67838
  20
199.86218
  0
VERTEX
  5
34c
  8
Layer_0
  10
324.34247
  20
200.07491
  0
VERTEX
  5
34d
  8
Layer_0
  10
324.92856
  20
200.4794
  0
VERTEX
  5
34e
  8
Layer_0
  10
324.92856
  20
204.19034
  0
VERTEX
  5
34f
  8
Layer_0
  10
324.09875
  20
204.49417
  0
VERTEX
  5
350
  8
Layer_0
  10
323.21762
  20
204.56143
  0
SEQEND
  0
POLYLINE
  5
352
  8
Layer_0
  62
0
  70
1
  66
1
  10
0
  20
0
  30
0
  0
VERTEX
  5
352
  8
Layer_0
  10
319.24887
  20
206.5419
  0
VERTEX
  5
353
  8
Layer_0
  10
317.9559
  20
206.5419
  0
VERTEX
  5
354
  8
Layer_0
  10
317.9559
  20
207.72159
  0
VERTEX
  5
355
  8
Layer_0
  10
319.24887
  20
207.72159
  0
VERTEX
  5
356
  8
Layer_0
  10
319.24887
  20
206.5419
  0
SEQEND
  0
ENDSEC
  0
EOF
